<svg width="34" height="30" viewBox="0 0 34 30" fill="none" xmlns="http://www.w3.org/2000/svg">
<path d="M16.3275 27C16.4275 27 16.5275 26.975 16.6275 26.925C16.7275 26.875 16.8025 26.825 16.8525 26.775L29.1525 14.475C29.4525 14.175 29.6713 13.8375 29.8088 13.4625C29.9463 13.0875 30.015 12.7125 30.015 12.3375C30.015 11.9375 29.9463 11.5562 29.8088 11.1937C29.6713 10.8312 29.4525 10.5125 29.1525 10.2375L22.7775 3.8625C22.5025 3.5625 22.1838 3.34375 21.8213 3.20625C21.4588 3.06875 21.0775 3 20.6775 3C20.3025 3 19.9275 3.06875 19.5525 3.20625C19.1775 3.34375 18.84 3.5625 18.54 3.8625L18.1275 4.275L20.9025 7.0875C21.2775 7.4375 21.5525 7.8375 21.7275 8.2875C21.9025 8.7375 21.99 9.2125 21.99 9.7125C21.99 10.7625 21.6338 11.6437 20.9213 12.3562C20.2088 13.0687 19.3275 13.425 18.2775 13.425C17.7775 13.425 17.2963 13.3375 16.8337 13.1625C16.3713 12.9875 15.965 12.725 15.615 12.375L12.8025 9.6L6.24 16.1625C6.165 16.2375 6.10875 16.3187 6.07125 16.4062C6.03375 16.4937 6.015 16.5875 6.015 16.6875C6.015 16.8875 6.09 17.0687 6.24 17.2312C6.39 17.3937 6.565 17.475 6.765 17.475C6.865 17.475 6.965 17.45 7.065 17.4C7.165 17.35 7.24 17.3 7.29 17.25L12.39 12.15L14.49 14.25L9.4275 19.35C9.3525 19.425 9.29625 19.5062 9.25875 19.5938C9.22125 19.6812 9.2025 19.775 9.2025 19.875C9.2025 20.075 9.2775 20.25 9.4275 20.4C9.5775 20.55 9.7525 20.625 9.9525 20.625C10.0525 20.625 10.1525 20.6 10.2525 20.55C10.3525 20.5 10.4275 20.45 10.4775 20.4L15.5775 15.3375L17.6775 17.4375L12.615 22.5375C12.54 22.5875 12.4838 22.6625 12.4462 22.7625C12.4088 22.8625 12.39 22.9625 12.39 23.0625C12.39 23.2625 12.465 23.4375 12.615 23.5875C12.765 23.7375 12.94 23.8125 13.14 23.8125C13.24 23.8125 13.3338 23.7937 13.4213 23.7562C13.5087 23.7187 13.59 23.6625 13.665 23.5875L18.765 18.525L20.865 20.625L15.765 25.725C15.69 25.8 15.6337 25.8812 15.5963 25.9688C15.5588 26.0562 15.54 26.15 15.54 26.25C15.54 26.45 15.6213 26.625 15.7838 26.775C15.9462 26.925 16.1275 27 16.3275 27ZM16.29 30C15.365 30 14.5463 29.6938 13.8338 29.0812C13.1213 28.4687 12.7025 27.7 12.5775 26.775C11.7275 26.65 11.015 26.3 10.44 25.725C9.865 25.15 9.515 24.4375 9.39 23.5875C8.54 23.4625 7.83375 23.1062 7.27125 22.5187C6.70875 21.9312 6.365 21.225 6.24 20.4C5.29 20.275 4.515 19.8625 3.915 19.1625C3.315 18.4625 3.015 17.6375 3.015 16.6875C3.015 16.1875 3.10875 15.7062 3.29625 15.2437C3.48375 14.7812 3.7525 14.375 4.1025 14.025L12.8025 5.3625L17.715 10.275C17.765 10.35 17.84 10.4062 17.94 10.4437C18.04 10.4812 18.14 10.5 18.24 10.5C18.465 10.5 18.6525 10.4312 18.8025 10.2937C18.9525 10.1562 19.0275 9.975 19.0275 9.75C19.0275 9.65 19.0088 9.55 18.9713 9.45C18.9338 9.35 18.8775 9.275 18.8025 9.225L13.44 3.8625C13.165 3.5625 12.8463 3.34375 12.4838 3.20625C12.1213 3.06875 11.74 3 11.34 3C10.965 3 10.59 3.06875 10.215 3.20625C9.84 3.34375 9.5025 3.5625 9.2025 3.8625L3.915 9.1875C3.69 9.4125 3.5025 9.675 3.3525 9.975C3.2025 10.275 3.1025 10.575 3.0525 10.875C3.0025 11.175 3.0025 11.4812 3.0525 11.7937C3.1025 12.1062 3.2025 12.4 3.3525 12.675L1.1775 14.85C0.7525 14.275 0.44 13.6437 0.24 12.9562C0.04 12.2687 -0.035 11.575 0.015 10.875C0.065 10.175 0.24 9.49375 0.54 8.83125C0.84 8.16875 1.2525 7.575 1.7775 7.05L7.065 1.7625C7.665 1.1875 8.33375 0.749998 9.07125 0.449999C9.80875 0.15 10.565 -1.90735e-06 11.34 -1.90735e-06C12.115 -1.90735e-06 12.8713 0.15 13.6088 0.449999C14.3463 0.749998 15.0025 1.1875 15.5775 1.7625L15.99 2.175L16.4025 1.7625C17.0025 1.1875 17.6713 0.749998 18.4088 0.449999C19.1462 0.15 19.9025 -1.90735e-06 20.6775 -1.90735e-06C21.4525 -1.90735e-06 22.2088 0.15 22.9463 0.449999C23.6838 0.749998 24.34 1.1875 24.915 1.7625L31.2525 8.1C31.8275 8.675 32.265 9.3375 32.565 10.0875C32.865 10.8375 33.015 11.6 33.015 12.375C33.015 13.15 32.865 13.9062 32.565 14.6437C32.265 15.3812 31.8275 16.0375 31.2525 16.6125L18.9525 28.875C18.6025 29.225 18.1963 29.5 17.7338 29.7C17.2712 29.9 16.79 30 16.29 30Z" fill="#746456"/>
</svg>
