<svg width="33" height="24" viewBox="0 0 33 24" fill="none" xmlns="http://www.w3.org/2000/svg">
<path d="M7.5 24C6.25 24 5.1875 23.5625 4.3125 22.6875C3.4375 21.8125 3 20.75 3 19.5H0V3C0 2.175 0.29375 1.46875 0.88125 0.881248C1.46875 0.293749 2.175 0 3 0H24V6H28.5L33 12V19.5H30C30 20.75 29.5625 21.8125 28.6875 22.6875C27.8125 23.5625 26.75 24 25.5 24C24.25 24 23.1875 23.5625 22.3125 22.6875C21.4375 21.8125 21 20.75 21 19.5H12C12 20.75 11.5625 21.8125 10.6875 22.6875C9.8125 23.5625 8.75 24 7.5 24ZM7.5 21C7.925 21 8.28125 20.8562 8.56875 20.5687C8.85625 20.2812 9 19.925 9 19.5C9 19.075 8.85625 18.7188 8.56875 18.4312C8.28125 18.1437 7.925 18 7.5 18C7.075 18 6.71875 18.1437 6.43125 18.4312C6.14375 18.7188 6 19.075 6 19.5C6 19.925 6.14375 20.2812 6.43125 20.5687C6.71875 20.8562 7.075 21 7.5 21ZM3 16.5H4.2C4.625 16.05 5.1125 15.6875 5.6625 15.4125C6.2125 15.1375 6.825 15 7.5 15C8.175 15 8.7875 15.1375 9.3375 15.4125C9.8875 15.6875 10.375 16.05 10.8 16.5H21V3H3V16.5ZM25.5 21C25.925 21 26.2813 20.8562 26.5688 20.5687C26.8563 20.2812 27 19.925 27 19.5C27 19.075 26.8563 18.7188 26.5688 18.4312C26.2813 18.1437 25.925 18 25.5 18C25.075 18 24.7188 18.1437 24.4313 18.4312C24.1438 18.7188 24 19.075 24 19.5C24 19.925 24.1438 20.2812 24.4313 20.5687C24.7188 20.8562 25.075 21 25.5 21ZM24 13.5H30.375L27 9H24V13.5Z" fill="#BEA48E"/>
</svg>
