<svg width="60" height="38" viewBox="0 0 60 38" fill="none" xmlns="http://www.w3.org/2000/svg">
<path d="M21.871 22.2898L20.2909 19.1067L27.1994 15.6773L28.7795 18.8604L21.871 22.2898Z" fill="#BEA48E" stroke="#BEA48E"/>
<path d="M20.6785 21.7204L18.5571 20.1126L19.6188 19.5856L20.6785 21.7204Z" fill="#BEA48E" stroke="#BEA48E"/>
<path d="M29.0514 17.5637L29.0534 14.9018L27.9916 15.4289L29.0514 17.5637Z" fill="#BEA48E" stroke="#BEA48E"/>
<path d="M37.6246 22.2898L39.2047 19.1067L32.2962 15.6773L30.7161 18.8604L37.6246 22.2898Z" fill="#7F5E40" stroke="#7F5E40"/>
<path d="M38.8171 21.7204L40.9386 20.1126L39.8768 19.5856L38.8171 21.7204Z" fill="#7F5E40" stroke="#7F5E40"/>
<path d="M30.4445 17.5637L30.4425 14.9018L31.5042 15.4289L30.4445 17.5637Z" fill="#7F5E40" stroke="#7F5E40"/>
<path d="M19.3551 31.2782L15.8564 30.655L17.209 23.0616L20.7077 23.6848L19.3551 31.2782Z" fill="#BEA48E" stroke="#BEA48E"/>
<path d="M18.188 31.8978L15.6336 32.6468L15.8415 31.4798L18.188 31.8978Z" fill="#BEA48E" stroke="#BEA48E"/>
<path d="M19.8273 22.6953L17.6887 21.1104L17.4809 22.2774L19.8273 22.6953Z" fill="#BEA48E" stroke="#BEA48E"/>
<path d="M40.1586 31.2782L43.6572 30.655L42.3046 23.0616L38.806 23.6848L40.1586 31.2782Z" fill="#7F5E40" stroke="#7F5E40"/>
<path d="M41.3259 31.8978L43.8803 32.6468L43.6724 31.4798L41.3259 31.8978Z" fill="#7F5E40" stroke="#7F5E40"/>
<path d="M39.6866 22.6953L41.8252 21.1104L42.0331 22.2774L39.6866 22.6953Z" fill="#7F5E40" stroke="#7F5E40"/>
<path d="M15.875 18.1571L12.7555 12.0547L25.6351 5.84627L28.7546 11.9487L15.875 18.1571Z" fill="#7F5E40" stroke="#7F5E40"/>
<path d="M14.6698 17.5903L9.48544 13.7726L12.0796 12.5224L14.6698 17.5903Z" fill="#7F5E40" stroke="#7F5E40"/>
<path d="M29.0254 10.67L29.0284 4.35182L26.4345 5.60243L29.0254 10.67Z" fill="#7F5E40" stroke="#7F5E40"/>
<path d="M43.7014 18.1581L46.8209 12.0557L33.9413 5.84725L30.8218 11.9496L43.7014 18.1581Z" fill="#BEA48E" stroke="#BEA48E"/>
<path d="M44.9066 17.5903L50.091 13.7726L47.4968 12.5224L44.9066 17.5903Z" fill="#BEA48E" stroke="#BEA48E"/>
<path d="M30.5507 10.67L30.5478 4.35182L33.1417 5.60243L30.5507 10.67Z" fill="#BEA48E" stroke="#BEA48E"/>
<path d="M12.0908 33.5018L5.16055 32.303L7.67822 18.5779L14.6085 19.7767L12.0908 33.5018Z" fill="#513C2E" stroke="#513C2E"/>
<path d="M10.9124 34.1125L4.63661 35.8981L5.1459 33.1154L10.9124 34.1125Z" fill="#513C2E" stroke="#513C2E"/>
<path d="M13.7215 18.7999L8.46668 15.0197L7.95514 17.8021L13.7215 18.7999Z" fill="#513C2E" stroke="#513C2E"/>
<path d="M47.4599 33.5018L54.3902 32.303L51.8726 18.5779L44.9423 19.7767L47.4599 33.5018Z" fill="#513C2E" stroke="#513C2E"/>
<path d="M48.6381 34.1125L54.9139 35.8981L54.4046 33.1154L48.6381 34.1125Z" fill="#513C2E" stroke="#513C2E"/>
<path d="M45.8292 18.7999L51.0841 15.0197L51.5956 17.8021L45.8292 18.7999Z" fill="#513C2E" stroke="#513C2E"/>
<path d="M36.1084 24.6279V32.7539H23.5898V24.6279H36.1084Z" fill="#513C2E" stroke="#513C2E"/>
<path d="M22.874 27.2086L22.0713 32.5842L22.8739 32.584L22.874 27.2086Z" fill="#513C2E" stroke="#513C2E"/>
<path d="M36.8245 27.192L37.6272 32.5676L36.8246 32.5674L36.8245 27.192Z" fill="#513C2E" stroke="#513C2E"/>
<path d="M29.8606 21.1045L36.6199 24.1276H23.1013L29.8606 21.1045Z" fill="#513C2E"/>
<rect x="26.752" y="24.6416" width="1.54009" height="1.54009" fill="#BEA48E"/>
<rect x="31.4292" y="24.6416" width="1.54009" height="1.54009" fill="#BEA48E"/>
<path d="M25.2689 10.8379L13.376 17.2549L12.8911 16.9127L25.2689 10.8379Z" fill="#F5F5F5"/>
<path d="M28.4634 22.1035L22.959 25.0126V24.6418L28.4634 22.1035Z" fill="#F5F5F5"/>
<path d="M32.1424 22.9297L36.7627 25.1543V24.8707L32.1424 22.9297Z" fill="#F5F5F5"/>
<path d="M34.4525 30.0605L37.8179 31.7147V31.5039L34.4525 30.0605Z" fill="#F5F5F5"/>
<path d="M25.0409 24.2988L22.7593 25.6678V25.4933L25.0409 24.2988Z" fill="#F5F5F5"/>
<path d="M7.84326 22.3887L5.70425 36.0498L5.19089 36.1924L7.84326 22.3887Z" fill="#F5F5F5"/>
<path d="M17.6257 23.0439L16.2282 32.9975L15.7149 33.3112L17.6257 23.0439Z" fill="#F5F5F5"/>
<path d="M17.6826 28.1777L17.3404 32.7124L16.9981 32.9121L17.6826 28.1777Z" fill="#F5F5F5"/>
<path d="M29.433 4.0498V4.42057L21.3333 8.24227L29.433 4.0498Z" fill="#F5F5F5"/>
<path d="M12.0643 17.0264L12.8058 17.5968L9.89673 31.1724L12.0643 17.0264Z" fill="#F5F5F5"/>
<path d="M13.5473 18.1672L13.2621 17.9675L12.0643 25.3543L13.5473 18.1672Z" fill="#F5F5F5"/>
<path d="M30.0889 8.95508L40.9836 14.5165L30.0889 9.58252V8.95508Z" fill="#F5F5F5"/>
<path d="M30.0034 14.6592L37.7324 18.595L30.0034 15.2866V14.6592Z" fill="#F5F5F5"/>
<path d="M29.5757 16.3701L20.82 20.9619L29.5757 16.9976V16.3701Z" fill="#F5F5F5"/>
<path d="M29.9749 18.4814L33.8251 20.2497L29.9749 18.7096V18.4814Z" fill="#F5F5F5"/>
<path d="M45.8321 18.2812L47.857 31.315L45.2332 18.5665L45.8321 18.2812Z" fill="#F5F5F5"/>
<path d="M53.9888 36.0781L51.0227 20.3065L53.2473 35.85L53.9888 36.0781Z" fill="#F5F5F5"/>
<path d="M46.1743 17.1403L33.7966 11.8926L45.7465 17.5681L46.1743 17.1403Z" fill="#F5F5F5"/>
<path d="M50.5664 13.9466L43.693 10.5527L50.2812 14.1748L50.5664 13.9466Z" fill="#F5F5F5"/>
<path d="M42.4953 26.0674L43.8643 33.0833H43.522L42.4953 26.0674Z" fill="#F5F5F5"/>
</svg>
