<svg width="18" height="22" viewBox="0 0 18 22" fill="none" xmlns="http://www.w3.org/2000/svg">
<path d="M3 15.5C2.5875 15.5 2.23438 15.3531 1.94063 15.0594C1.64687 14.7656 1.5 14.4125 1.5 14V8C1.5 7.5875 1.64687 7.23438 1.94063 6.94062C2.23438 6.64687 2.5875 6.5 3 6.5H15C15.4125 6.5 15.7656 6.64687 16.0594 6.94062C16.3531 7.23438 16.5 7.5875 16.5 8V14C16.5 14.4125 16.3531 14.7656 16.0594 15.0594C15.7656 15.3531 15.4125 15.5 15 15.5H3ZM3 14H15V8H12.75V11H11.25V8H9.75V11H8.25V8H6.75V11H5.25V8H3V14Z" fill="#BEA48E"/>
</svg>
