<svg width="18" height="22" viewBox="0 0 18 22" fill="none" xmlns="http://www.w3.org/2000/svg">
<path d="M9.20625 16.25C9.35625 16.2375 9.48438 16.1781 9.59063 16.0719C9.69688 15.9656 9.75 15.8375 9.75 15.6875C9.75 15.5125 9.69375 15.3719 9.58125 15.2656C9.46875 15.1594 9.325 15.1125 9.15 15.125C8.6375 15.1625 8.09375 15.0219 7.51875 14.7031C6.94375 14.3844 6.58125 13.8062 6.43125 12.9688C6.40625 12.8312 6.34063 12.7188 6.23438 12.6312C6.12813 12.5437 6.00625 12.5 5.86875 12.5C5.69375 12.5 5.55 12.5656 5.4375 12.6969C5.325 12.8281 5.2875 12.9812 5.325 13.1562C5.5375 14.2937 6.0375 15.1062 6.825 15.5938C7.6125 16.0812 8.40625 16.3 9.20625 16.25ZM9 18.5C7.2875 18.5 5.85938 17.9125 4.71563 16.7375C3.57188 15.5625 3 14.1 3 12.35C3 11.1 3.49688 9.74062 4.49063 8.27187C5.48438 6.80312 6.9875 5.2125 9 3.5C11.0125 5.2125 12.5156 6.80312 13.5094 8.27187C14.5031 9.74062 15 11.1 15 12.35C15 14.1 14.4281 15.5625 13.2844 16.7375C12.1406 17.9125 10.7125 18.5 9 18.5ZM9 17C10.3 17 11.375 16.5594 12.225 15.6781C13.075 14.7969 13.5 13.6875 13.5 12.35C13.5 11.4375 13.1219 10.4062 12.3656 9.25625C11.6094 8.10625 10.4875 6.85 9 5.4875C7.5125 6.85 6.39062 8.10625 5.63438 9.25625C4.87813 10.4062 4.5 11.4375 4.5 12.35C4.5 13.6875 4.925 14.7969 5.775 15.6781C6.625 16.5594 7.7 17 9 17Z" fill="#BEA48E"/>
</svg>
